<?xml version="1.0" standalone="no"?><!DOCTYPE svg PUBLIC "-//W3C//DTD SVG 1.1//EN" "http://www.w3.org/Graphics/SVG/1.1/DTD/svg11.dtd"><svg t="1553668888920" class="icon" style="" viewBox="0 0 1024 1024" version="1.1" xmlns="http://www.w3.org/2000/svg" p-id="2017" xmlns:xlink="http://www.w3.org/1999/xlink" width="200" height="200"><defs><style type="text/css"></style></defs><path d="M490.2912 250.1632c11.9808-11.9808 31.5392-11.9808 43.4176 0L1013.76 730.2144c11.9808 11.9808 11.9808 31.5392 0 43.4176-11.9808 11.9808-31.5392 11.9808-43.4176 0L490.2912 293.5808c-11.9808-11.9808-11.9808-31.4368 0-43.4176z" fill="#8a8a8a" p-id="2018"></path><path d="M533.7088 250.1632c11.9808 11.9808 11.9808 31.5392 0 43.4176L53.6576 773.632c-11.9808 11.9808-31.5392 11.9808-43.4176 0-11.9808-11.9808-11.9808-31.5392 0-43.4176l480.0512-480.0512c11.9808-11.9808 31.4368-11.9808 43.4176 0z" fill="#8a8a8a" p-id="2019"></path></svg>