<?xml version="1.0" standalone="no"?><!DOCTYPE svg PUBLIC "-//W3C//DTD SVG 1.1//EN" "http://www.w3.org/Graphics/SVG/1.1/DTD/svg11.dtd"><svg t="1553740869898" class="icon" style="" viewBox="0 0 1024 1024" version="1.1" xmlns="http://www.w3.org/2000/svg" p-id="2280" xmlns:xlink="http://www.w3.org/1999/xlink" width="200" height="200"><defs><style type="text/css"></style></defs><path d="M282.624 431.104h360.96c6.656 0 11.776-8.704 11.776-19.968 0-10.752-5.12-19.968-11.776-19.968H282.624c-6.656 0-11.776 8.704-11.776 19.968 0 10.752 5.12 19.968 11.776 19.968zM282.624 522.752h360.96c6.656 0 11.776-8.704 11.776-19.968 0-10.752-5.12-19.968-11.776-19.968H282.624c-6.656 0-11.776 8.704-11.776 19.968 0 10.752 5.12 19.968 11.776 19.968zM282.624 614.4h360.96c6.656 0 11.776-8.704 11.776-19.968 0-10.752-5.12-19.968-11.776-19.968H282.624c-6.656 0-11.776 8.704-11.776 19.968 0 10.752 5.12 19.968 11.776 19.968z" fill="#1296db" p-id="2281"></path><path d="M787.456 65.024H232.96C172.032 65.024 122.88 115.712 122.88 178.176v660.48c0 8.192 3.072 16.384 9.216 22.016l89.6 89.088c11.264 11.264 29.696 11.264 41.472 0l91.648-90.624 95.232 94.208c11.264 11.264 29.696 11.264 41.472 0l95.232-94.208 95.232 94.208c5.632 5.632 13.312 8.704 20.48 8.704 7.68 0 14.848-3.072 20.48-8.704l86.016-85.504c5.632-5.632 9.216-13.824 9.216-22.016V286.72c47.616-13.312 82.944-56.832 82.944-109.056-1.024-61.952-51.712-112.64-113.664-112.64z m-23.04 775.68L706.56 898.048l-97.28-96.768c-11.776-11.776-30.208-11.776-41.984 0l-97.28 96.768-97.28-96.768c-11.776-11.776-30.208-11.776-41.984 0l-93.696 93.184-61.44-60.928V169.984c0-29.184 23.04-53.248 51.712-53.248H228.864c30.208 0 54.784 24.064 54.784 53.248s-24.576 53.248-54.784 53.248c-16.896 0-30.208 13.824-30.208 31.232 0 17.408 13.824 31.232 30.208 31.232h536.064v555.008z m26.624-606.208l-15.872 1.536-473.6-3.072c28.672-14.336 28.672-42.496 28.672-51.2 0-31.744-5.12-46.08-12.8-61.952l474.112-1.024c29.696 0 60.928 31.232 60.928 59.904-0.512 29.696-31.744 55.808-61.44 55.808zM707.072 898.048zM900.096 178.176z" fill="#1296db" p-id="2282"></path></svg>