<?xml version="1.0" standalone="no"?><!DOCTYPE svg PUBLIC "-//W3C//DTD SVG 1.1//EN" "http://www.w3.org/Graphics/SVG/1.1/DTD/svg11.dtd"><svg t="1553698242623" class="icon" style="" viewBox="0 0 1024 1024" version="1.1" xmlns="http://www.w3.org/2000/svg" p-id="2789" xmlns:xlink="http://www.w3.org/1999/xlink" width="200" height="200"><defs><style type="text/css"></style></defs><path d="M779.159 928.219H247.953c-46.996 0-90.927-41.262-90.927-88.272V503.002c0-47.015 41.061-88.764 88.058-88.764h36.369v-81.121h-0.201a246.85 246.85 0 0 1-0.126-7.455c0-125.366 97.31-230.542 230.472-230.542s230.478 105.176 230.478 230.542v0.085c0 0.949-0.019 1.893-0.032 2.841h-0.215c-1.393 8.631-8.856 14.973-17.6 14.946a17.768 17.768 0 0 1-17.512-15.044h-0.812c-6.987-110.57-91.353-197.903-194.417-197.903-104.2 0-189.285 89.268-194.614 201.567v82.085h460.371c46.997 0 89.017 44.87 89.017 91.886v336.912c-0.003 47.004-40.106 85.182-87.103 85.182z m51.554-425.217c0-31.34-22.134-53.348-53.47-53.348H245.084c-31.332 0-52.6 22.008-52.6 53.348v319.209c0 31.345 22.222 70.592 53.553 70.592h532.165c31.336 0 52.512-39.247 52.512-70.592V503.002zM547.532 673v111.649c0 1.056-1.813 1.917-2.869 1.917h-66.999a1.92 1.92 0 0 1-1.917-1.917V673.037c-20.974-9.24-35.064-26.331-35.064-45.898 0-29.383 31.752-53.203 70.915-53.203 39.169 0 70.916 23.82 70.916 53.203 0 19.54-14.053 36.607-34.982 45.861z m0 0" p-id="2790" fill="#ffffff"></path></svg>