<?xml version="1.0" standalone="no"?><!DOCTYPE svg PUBLIC "-//W3C//DTD SVG 1.1//EN" "http://www.w3.org/Graphics/SVG/1.1/DTD/svg11.dtd"><svg t="1553701479082" class="icon" style="" viewBox="0 0 1024 1024" version="1.1" xmlns="http://www.w3.org/2000/svg" p-id="5493" xmlns:xlink="http://www.w3.org/1999/xlink" width="200" height="200"><defs><style type="text/css"></style></defs><path d="M798.32064 1006.933333H177.687893C115.339947 1006.933333 64.853333 951.15264 64.853333 882.234027v-311.732907c0-68.819627 50.486613-124.70272 112.83456-124.70272v-93.416107c0-189.39904 138.912427-342.91712 310.268587-342.91712s310.268587 153.51808 310.268587 342.91712v1.95584h-0.395947c-0.979627 16.27136-12.936533 29.21472-27.835733 29.21472-14.906027 0-26.866347-12.94336-27.845974-29.21472h-0.197973v-1.95584c0-154.89024-113.708373-280.572587-253.9008-280.572586-140.27776 0.1024-253.893973 125.678933-253.893973 280.572586v93.515094h564.165973c62.35136 0 112.83456 55.780693 112.83456 124.699306v311.73632c0.098987 68.819627-50.486613 124.60032-112.83456 124.60032z m56.466773-436.333226c0-34.413227-25.1904-62.354773-56.364373-62.354774H177.78688c-31.173973 0-56.466773 27.941547-56.466773 62.354774v311.73632c0 34.4064 25.2928 62.347947 56.466773 62.347946h620.63616c31.173973 0 56.364373-27.941547 56.364373-62.347946v-311.73632z m-338.50368 180.667733v99.795627c0 17.2544-12.642987 31.17056-28.235093 31.17056-15.581867 0-28.228267-13.91616-28.228267-31.17056v-99.795627c-32.744107-12.93312-56.367787-46.656853-56.367786-87.145813 0-51.664213 37.8368-93.518507 84.596053-93.518507 46.76608 0 84.60288 41.857707 84.60288 93.518507 0 40.577707-23.722667 74.30144-56.367787 87.145813z m-28.23168-118.319787c-15.58528 0-28.23168 13.919573-28.23168 31.173974 0 17.152 12.6464 31.17056 28.23168 31.17056s28.23168-13.91616 28.23168-31.17056-12.642987-31.173973-28.23168-31.173974z m0 0" fill="#ffffff" p-id="5494"></path></svg>