<?xml version="1.0" standalone="no"?><!DOCTYPE svg PUBLIC "-//W3C//DTD SVG 1.1//EN" "http://www.w3.org/Graphics/SVG/1.1/DTD/svg11.dtd"><svg t="1553668388673" class="icon" style="" viewBox="0 0 1024 1024" version="1.1" xmlns="http://www.w3.org/2000/svg" p-id="1147" xmlns:xlink="http://www.w3.org/1999/xlink" width="200" height="200"><defs><style type="text/css"></style></defs><path d="M530.025 611.069c-32.695 0-49.043 24.522-49.043 61.304 0 40.869 16.348 61.304 49.043 61.304 32.696 0 49.044-20.435 49.044-61.304-4.088-36.782-16.348-57.217-49.044-61.304z" fill="#d81e06" p-id="1148"></path><path d="M705.764 230.983c20.435 49.044 24.522 122.608-16.348 163.479-69.478-269.74-245.217-326.957-245.217-326.957 20.435 138.956-73.566 290.174-167.566 404.608-4.087-57.217-8.173-93.999-36.782-147.13-8.174 102.173-81.739 183.913-106.26 282-16.348 85.826-4.087 163.479 57.217 232.957 98.087 93.999 351.478 212.522 608.956 4.087 237.043-241.13-36.782-572.174-93.999-613.043v-0.001h-0.001zM411.503 770.46h-44.955v-77.652h-81.739v77.652h-44.957V578.374h44.957v77.652h85.825v-77.652h44.957V770.46h-4.088z m118.522 4.088c-61.304-4.087-93.999-36.782-98.086-98.086 4.087-65.391 36.782-98.086 98.086-102.174 61.304 4.087 89.913 36.782 94 102.174 0 61.303-32.696 93.998-94 98.086zM750.72 615.156v159.392h-44.957V615.156H644.46v-36.782h167.565v36.782H750.72z" fill="#d81e06" p-id="1149"></path></svg>