<?xml version="1.0" standalone="no"?><!DOCTYPE svg PUBLIC "-//W3C//DTD SVG 1.1//EN" "http://www.w3.org/Graphics/SVG/1.1/DTD/svg11.dtd"><svg t="1553699244597" class="icon" style="" viewBox="0 0 1024 1024" version="1.1" xmlns="http://www.w3.org/2000/svg" p-id="3928" xmlns:xlink="http://www.w3.org/1999/xlink" width="200" height="200"><defs><style type="text/css"></style></defs><path d="M646.656 603.136c71.68-49.664 126.464-134.656 126.464-233.984 0-153.6-119.296-276.48-264.704-276.48s-264.704 129.536-264.704 276.48c0 95.744 49.664 182.784 122.88 233.984-138.24 57.856-233.984 203.264-233.984 365.056h56.32c0-177.664 153.6-341.504 322.56-341.504s322.56 158.72 322.56 341.504h56.32c-3.072-165.376-105.472-307.2-243.712-365.056z m-348.16-233.984c0-120.832 92.672-217.6 208.384-217.6s208.384 100.352 208.384 217.6c0 120.832-94.72 221.184-208.384 221.184-111.616-2.048-208.384-96.768-208.384-221.184z" p-id="3929" fill="#ffffff"></path></svg>