<?xml version="1.0" standalone="no"?><!DOCTYPE svg PUBLIC "-//W3C//DTD SVG 1.1//EN" "http://www.w3.org/Graphics/SVG/1.1/DTD/svg11.dtd"><svg t="1553699037143" class="icon" style="" viewBox="0 0 1024 1024" version="1.1" xmlns="http://www.w3.org/2000/svg" p-id="3747" xmlns:xlink="http://www.w3.org/1999/xlink" width="200" height="200"><defs><style type="text/css"></style></defs><path d="M61.279955 1024c-20.174143 0-36.577419-16.026189-37.143049-35.823245v-26.207532c-0.188543-182.887094 113.880211-346.165675 285.643245-408.762083l7.918823-3.016695-7.16465-4.902128c-83.524725-54.300498-134.242898-146.875306-134.808528-246.614762 0.377087-79.9424 32.806551-156.491019 89.746657-212.488408s134.054355-87.107049 213.808211-86.164332c165.918189-1.508347 301.669434 131.414747 303.554868 297.332936 0.188543 100.116543-50.52963 193.445525-134.808528 247.557479l-7.164649 4.902129 7.918822 3.016694C821.298385 619.008785 935.178596 783.60717 936.686943 967.814068v20.174143c-2.073977 19.042883-18.100166 33.749268-37.520136 33.749268-19.231426 0-35.446158-14.329298-37.520135-33.749268 0.754174-12.255321 0.754174-24.322098 0-36.388875-11.501147-201.364347-179.493313-357.855366-381.423291-355.215759-201.741434-2.451064-369.356513 154.039955-380.85766 355.215759-0.754174 11.312604-0.754174 22.436664 0 33.749268v5.279215c-2.451064 19.231426-18.665796 33.372181-38.085766 33.372181zM479.469208 72.98711c-60.333887-0.754174-118.028166 22.813751-161.016061 64.858928s-67.309992 99.550913-68.064166 159.696256c5.279215 122.741751 106.527019 219.464513 229.26877 219.464514s223.801011-96.534219 229.26877-219.464514c-1.13126-125.381358-103.887411-225.686445-229.457313-224.555184z" p-id="3748" fill="#ffffff"></path></svg>