<?xml version="1.0" standalone="no"?><!DOCTYPE svg PUBLIC "-//W3C//DTD SVG 1.1//EN" "http://www.w3.org/Graphics/SVG/1.1/DTD/svg11.dtd"><svg t="1553701410831" class="icon" style="" viewBox="0 0 1024 1024" version="1.1" xmlns="http://www.w3.org/2000/svg" p-id="4707" xmlns:xlink="http://www.w3.org/1999/xlink" width="200" height="200"><defs><style type="text/css"></style></defs><path d="M909.653333 162.133333C857.173333 139.946667 592.213333 29.866667 512 29.44s-346.453333 110.933333-398.933333 133.12a94.72 94.72 0 0 0-59.306667 87.466667 938.666667 938.666667 0 0 0 67.84 344.746666c115.626667 264.533333 316.586667 384 377.173333 398.506667a58.88 58.88 0 0 0 12.8 0 56.32 56.32 0 0 0 13.653334 0c75.946667-18.346667 270.08-157.866667 375.04-398.08a941.226667 941.226667 0 0 0 68.266666-345.6 99.413333 99.413333 0 0 0-58.88-87.466667z m-67.84 407.466667c-96.853333 221.44-276.48 348.16-328.533333 361.386667C469.333333 920.746667 285.866667 810.666667 180.48 569.173333a875.093333 875.093333 0 0 1-62.72-320.426666 30.72 30.72 0 0 1 19.626667-27.306667c150.613333-63.573333 327.68-128 374.186666-128s223.146667 64.426667 372.906667 128a37.546667 37.546667 0 0 1 19.626667 26.88 877.226667 877.226667 0 0 1-62.72 320.853333z" p-id="4708" fill="#ffffff"></path><path d="M721.066667 288.853333L453.973333 554.666667 301.226667 402.773333A32 32 0 1 0 256 448l175.786667 175.786667a32 32 0 0 0 45.226666 0L768 334.08a32 32 0 1 0-46.933333-45.226667z" p-id="4709" fill="#ffffff"></path></svg>