<?xml version="1.0" standalone="no"?><!DOCTYPE svg PUBLIC "-//W3C//DTD SVG 1.1//EN" "http://www.w3.org/Graphics/SVG/1.1/DTD/svg11.dtd"><svg t="1553436976849" class="icon" style="" viewBox="0 0 1024 1024" version="1.1" xmlns="http://www.w3.org/2000/svg" p-id="19810" xmlns:xlink="http://www.w3.org/1999/xlink" width="200" height="200"><defs><style type="text/css"></style></defs><path d="M911.872 779.22304c-50.96448 54.01088-91.6224 48.66048-125.72672 39.10656-41.89696-11.7248-108.91264-119.13216-229.50912-141.03552-52.55168-9.5488-85.28896-0.128-86.12864 0-121.21088 21.67808-188.45184 119.49056-230.56896 131.08224-34.28352 9.46688-75.38176 24.28928-126.61248-29.14816-51.27168-53.4016-66.22208-291.17952 3.63008-422.39488 62.81728-117.89312 142.40256-164.38272 218.18368-148.8128 86.8864 17.8688 94.44864 26.6752 133.0688 43.97056 0 0 22.07744 8.93952 43.79648 8.80128 23.49568-0.1792 46.6688-9.4208 44.94848-8.80128 40.87296-14.51008 41.4464-31.18592 133.10976-43.9296 83.65568-11.63264 156.73344 33.88416 218.40384 153.68192 66.79552 129.8432 54.36416 363.46368 3.4048 417.47968z m-43.7504-388.28032c-55.38304-97.98656-118.65088-144.74752-180.58752-137.53856-83.78368 9.73312-117.31456 43.48928-167.48032 45.25568 3.2256-0.09216-26.19392 0-26.19392 0-43.04384-2.92352-87.94624-30.57152-167.53152-45.25568-69.36064-12.78464-132.27008 36.7616-180.57728 137.53856-50.03264 104.40192-37.16096 268.30336 0 320.9472 37.0688 52.46976 58.88 53.62176 90.2912 45.82912 38.57408-9.55392 121.29792-100.90496 232.33536-118.72768 0.75264-0.13312 30.7456-7.8336 78.87872 0 110.45888 18.00192 177.57184 93.29664 210.22208 115.90656 34.05824 23.61856 69.04832 39.23456 110.63808 2.82624 54.90176-48.00512 59.67872-261.18656 0.00512-366.78144z m-134.04672 167.40352H644.096v-43.4432h-43.6224V425.27232h43.57632v-43.4432h89.97888v43.4432h43.57632v89.67168h-43.53024v43.40224z m-399.42656-0.0512c-48.92672 0-88.61184-39.5008-88.61184-88.25344 0-48.74752 39.68-88.25344 88.61184-88.25344 48.93184 0 88.61184 39.50592 88.61184 88.25344 0 48.75264-39.68 88.25344-88.61184 88.25344z m0-132.17792c-24.37632 0-44.10368 19.6864-44.10368 43.9296 0 24.28416 19.73248 43.9296 44.10368 43.9296s44.10368-19.6864 44.10368-43.9296c0.00512-24.28928-19.76832-43.9296-44.10368-43.9296z" p-id="19811" fill="#d81e06"></path></svg>