<?xml version="1.0" standalone="no"?><!DOCTYPE svg PUBLIC "-//W3C//DTD SVG 1.1//EN" "http://www.w3.org/Graphics/SVG/1.1/DTD/svg11.dtd"><svg t="1553436956832" class="icon" style="" viewBox="0 0 1024 1024" version="1.1" xmlns="http://www.w3.org/2000/svg" p-id="18918" xmlns:xlink="http://www.w3.org/1999/xlink" width="200" height="200"><defs><style type="text/css"></style></defs><path d="M810.188868 959.409936h-596.966137c-47.819099 0-82.911338-35.512818-82.911338-82.911338V362.443799c0-47.414893 35.092239-82.911338 82.911338-82.911338h116.077715v-49.747008c0-87.074148 51.721988-165.824723 182.406377-165.824722 130.683365 0 182.406376 78.750575 182.406376 165.824722v49.747008h116.076692c47.820122 0 82.911338 31.609928 82.911338 79.009472v517.956665c0 47.39852-35.091216 82.911338-82.912361 82.911338zM644.365168 229.78443c0-66.6377-64.273862-99.495038-132.659369-99.495038-68.38653 0-132.660392 32.856315-132.660392 99.495038v49.747008h265.318738l0.001023-49.747008z m198.989054 165.8237c0-47.625694-18.703991-66.328661-66.329685-66.328661h-82.911338v72.126714c19.561521 9.343809 33.164331 29.132504 33.164331 52.240804 0 32.04688-25.989931 58.038858-58.038858 58.038858-32.04688 0-58.037834-25.990954-58.037834-58.038858 0-23.108301 13.602809-42.896996 33.16433-52.240804v-72.126714H379.046431v72.126714c19.562545 9.343809 33.165354 29.132504 33.165353 52.240804 0 32.04688-25.990954 58.038858-58.038857 58.038858s-58.038858-25.990954-58.038858-58.038858c0-23.108301 13.602809-42.896996 33.165354-52.240804v-72.126714h-82.912361c-47.625694 0-66.328661 18.702967-66.328662 66.328661v447.724091c0 47.625694 18.702967 66.329684 66.328662 66.329684h530.637475c47.625694 0 66.329684-18.703991 66.329685-66.329684V395.60813z" p-id="18919" fill="#d81e06"></path></svg>