<?xml version="1.0" standalone="no"?><!DOCTYPE svg PUBLIC "-//W3C//DTD SVG 1.1//EN" "http://www.w3.org/Graphics/SVG/1.1/DTD/svg11.dtd"><svg t="1553440415766" class="icon" style="" viewBox="0 0 1024 1024" version="1.1" xmlns="http://www.w3.org/2000/svg" p-id="2657" xmlns:xlink="http://www.w3.org/1999/xlink" width="200" height="200"><defs><style type="text/css"></style></defs><path d="M 961.723 1029.3 H 59.9472 c -18.6414 0 -37.2827 -9.32068 -48.9335 -23.3017 c -11.6508 -16.3112 -16.3112 -34.9525 -11.6508 -53.5939 c 46.6034 -237.677 240.007 -414.77 473.024 -433.411 c 78.0607 0 162.529 9.90322 246.998 44.2732 c 24.4668 9.90322 32.6224 16.3112 46.6034 23.3017 c 135.15 76.8956 228.357 209.715 258.649 365.837 c 4.66034 18.6414 0 37.2827 -13.981 53.5939 c -11.6508 13.981 -30.2922 23.3017 -48.9335 23.3017 Z" fill="#ffffff" p-id="2658"></path><path d="M 61.1123 991.432 c -7.57305 0 -14.5636 -2.91271 -18.6414 -8.15559 c -0.582542 -0.582542 -0.582542 -1.16508 -1.16508 -1.74763 c -5.82542 -5.82542 -6.40796 -15.7286 -5.24288 -21.5541 c 43.1081 -221.366 224.279 -387.391 440.984 -403.119 h 17.4763 c 104.275 0 204.472 32.6224 253.406 63.4971 C 876.089 697.248 961.723 817.835 988.52 959.975 c 1.16508 8.15559 -0.582542 15.7286 -6.40796 23.3017 c -4.0778 5.24288 -11.0683 8.15559 -18.6414 8.15559 H 61.1123 Z" fill="#ffffff" p-id="2659"></path><path d="M 494.524 570.837 c 101.362 0 198.647 31.4573 245.833 61.1669 h 0.582542 c 124.664 73.9829 207.385 191.074 233.017 329.719 c 0.582542 2.91271 0.582542 6.99051 -4.0778 12.2334 c -0.582542 1.16508 -3.49525 2.33017 -6.99051 2.33017 H 61.1123 c -3.49525 0 -6.40796 -1.16508 -6.99051 -2.33017 c -0.582542 -1.16508 -1.74763 -2.33017 -2.91271 -2.91271 c -1.16508 -1.16508 -2.33017 -4.66034 -1.16508 -8.73813 c 41.943 -214.958 217.288 -375.74 427.586 -391.468 c 5.24288 0.582542 11.0683 0 16.8937 0 m 0 -29.1271 c -5.82542 0 -12.2334 0 -18.0588 0.582542 C 252.769 558.603 66.3552 728.706 22.082 957.062 c -2.33017 11.6508 0 25.6319 9.32068 34.9525 c 6.99051 9.32068 18.6414 13.981 30.2922 13.981 H 963.47 c 11.6508 0 23.3017 -4.66034 30.2922 -13.981 c 6.99051 -9.32068 11.6508 -20.9715 9.32068 -34.9525 c -27.962 -149.131 -116.508 -271.465 -246.998 -349.525 c -49.5161 -30.8747 -150.878 -65.8273 -261.561 -65.8273 Z M 512 539.962 c -146.801 0 -267.969 -121.169 -267.969 -267.969 S 365.199 4.02318 512 4.02318 s 267.969 121.169 267.969 267.969 S 658.801 539.962 512 539.962 Z" fill="#ffffff" p-id="2660"></path><path d="M 512 502.097 c -126.994 0 -230.104 -103.11 -230.104 -230.104 S 385.006 41.8884 512 41.8884 s 230.104 103.11 230.104 230.104 s -103.11 230.104 -230.104 230.104 Z" fill="#ffffff" p-id="2661"></path><path d="M 512 56.452 c 118.839 0 215.541 96.702 215.541 215.541 S 630.839 487.533 512 487.533 s -215.541 -96.702 -215.541 -215.541 s 96.702 -215.541 215.541 -215.541 m 0 -29.1271 c -135.15 0 -244.668 109.518 -244.668 244.668 s 109.518 244.668 244.668 244.668 s 244.668 -109.518 244.668 -244.668 S 647.15 27.3249 512 27.3249 Z" fill="#ffffff" p-id="2662"></path></svg>