<?xml version="1.0" standalone="no"?><!DOCTYPE svg PUBLIC "-//W3C//DTD SVG 1.1//EN" "http://www.w3.org/Graphics/SVG/1.1/DTD/svg11.dtd"><svg t="1553472482700" class="icon" style="" viewBox="0 0 1024 1024" version="1.1" xmlns="http://www.w3.org/2000/svg" p-id="17562" xmlns:xlink="http://www.w3.org/1999/xlink" width="200" height="200"><defs><style type="text/css"></style></defs><path d="M512 887c-206.8 0-375-168.2-375-375s168.2-375 375-375 375 168.2 375 375-168.2 375-375 375z m0-728.2c-194.7 0-353.2 158.4-353.2 353.2S317.3 865.2 512 865.2 865.2 706.7 865.2 512 706.7 158.8 512 158.8z" p-id="17563" fill="#8a8a8a"></path><path d="M402.3 556.8c12-11.2 19.6-27.1 19.6-44.8 0-17.7-7.6-33.6-19.6-44.8L357.6 512l44.7 44.8zM492.4 512c0 37.1-15.5 70.6-40.3 94.6l33.2 33.2c33.3-32.5 54.1-77.7 54.1-127.8s-20.8-95.3-54.1-127.8l-33.2 33.2c24.8 24 40.3 57.5 40.3 94.6zM619.4 512c0 72.1-29.8 137.3-77.6 184.3l33.3 33.3c56.3-55.4 91.3-132.5 91.3-217.6s-35-162.1-91.3-217.6l-33.3 33.3c47.8 47 77.6 112.2 77.6 184.3z" p-id="17564" fill="#8a8a8a"></path></svg>