<?xml version="1.0" standalone="no"?><!DOCTYPE svg PUBLIC "-//W3C//DTD SVG 1.1//EN" "http://www.w3.org/Graphics/SVG/1.1/DTD/svg11.dtd"><svg t="1553476018263" class="icon" style="" viewBox="0 0 1024 1024" version="1.1" xmlns="http://www.w3.org/2000/svg" p-id="19393" xmlns:xlink="http://www.w3.org/1999/xlink" width="200" height="200"><defs><style type="text/css"></style></defs><path d="M887.844571 314.148571h-112.091428c-26.075429 0-47.908571-21.174857-47.908572-47.945142V194.267429c0-26.075429-21.211429-47.908571-47.981714-47.908572H359.789714c-26.075429 0-47.908571 21.138286-47.908571 47.908572v72.630857c0 26.075429-21.174857 47.908571-47.945143 47.908571H151.844571c-26.112 0-47.945143 21.211429-47.945142 47.981714v496.274286c0 26.112 21.138286 47.981714 47.908571 47.981714h736.036571c26.075429 0 47.908571-21.174857 47.908572-47.945142V362.057143c0-26.112-21.101714-47.945143-47.908572-47.945143zM518.436571 759.698286a170.752 170.752 0 0 1-170.605714-170.605715c0-93.769143 76.836571-170.605714 170.605714-170.605714a170.752 170.752 0 0 1 170.605715 170.605714 170.752 170.752 0 0 1-170.605715 170.605715z" p-id="19394" fill="#ffffff"></path></svg>