<?xml version="1.0" standalone="no"?><!DOCTYPE svg PUBLIC "-//W3C//DTD SVG 1.1//EN" "http://www.w3.org/Graphics/SVG/1.1/DTD/svg11.dtd"><svg t="1553473696854" class="icon" style="" viewBox="0 0 1024 1024" version="1.1" xmlns="http://www.w3.org/2000/svg" p-id="18507" xmlns:xlink="http://www.w3.org/1999/xlink" width="200" height="200"><defs><style type="text/css"></style></defs><path d="M511.18 878.592c-201.83 0-365.977-164.147-365.977-365.978S309.35 146.637 511.181 146.637s365.977 164.147 365.977 365.977c0 201.83-164.147 365.978-365.977 365.978z m0-705.74c-187.391 0-339.762 152.473-339.762 339.762S323.89 852.378 511.18 852.378c187.392 0 339.763-152.474 339.763-339.764S698.573 172.851 511.181 172.851z m117.658 235.212c0.103-21.094 8.704-37.99 19.252-37.888 10.547 0.102 19.046 17.203 19.046 38.298 0 21.094-8.5 38.195-19.046 38.297-10.548 0.103-19.15-16.793-19.252-37.888v-0.819z m19.661 52.224c-18.944 0-32.665-22.016-32.665-52.326s13.721-52.327 32.665-52.327 32.666 22.016 32.666 52.327c0 30.412-13.824 52.326-32.666 52.326z m0-77.62c-2.56 2.97-6.553 11.777-6.553 25.396 0 13.517 3.993 22.426 6.553 25.395 2.56-2.97 6.554-11.776 6.554-25.395-0.103-13.517-4.096-22.426-6.554-25.395z m-294.093 25.396c0.103-21.094 8.704-37.99 19.252-37.888 10.547 0.102 19.046 17.203 19.046 38.298 0 21.094-8.5 38.195-19.046 38.297-10.548 0.103-19.15-16.793-19.252-37.888v-0.819z m19.559 52.224c-18.944 0-32.666-22.016-32.666-52.326s13.722-52.327 32.666-52.327 32.665 22.016 32.665 52.327c0 30.412-13.721 52.326-32.665 52.326z m0-77.62c-2.56 2.97-6.554 11.777-6.554 25.396 0 13.517 3.994 22.426 6.554 25.395 2.56-2.97 6.553-11.776 6.553-25.395 0-13.517-3.993-22.426-6.553-25.395z m359.424 175.72c0 104.652-99.43 189.542-222.208 189.542-122.675 0-222.208-84.89-222.208-189.543M511.18 760.934c-129.741 0-235.213-90.828-235.213-202.547 0-7.27 5.837-13.107 13.107-13.107s13.107 5.837 13.107 13.107c0 97.28 93.799 176.435 209.101 176.435s209.101-79.155 209.101-176.435c0-7.27 5.837-13.107 13.107-13.107s13.107 5.837 13.107 13.107c-0.102 111.719-105.676 202.547-235.417 202.547zM289.075 545.28H733.39v26.112H289.075V545.28z m0 0" p-id="18508" fill="#8a8a8a"></path></svg>