<?xml version="1.0" standalone="no"?><!DOCTYPE svg PUBLIC "-//W3C//DTD SVG 1.1//EN" "http://www.w3.org/Graphics/SVG/1.1/DTD/svg11.dtd"><svg t="1553476867737" class="icon" style="" viewBox="0 0 1024 1024" version="1.1" xmlns="http://www.w3.org/2000/svg" p-id="20193" xmlns:xlink="http://www.w3.org/1999/xlink" width="200" height="200"><defs><style type="text/css"></style></defs><path d="M512 624c81.952 0 148.368-75.2 148.368-168v-224C660.368 139.232 593.952 64 512 64s-148.368 75.232-148.368 168v224C363.632 548.8 430.08 624 512 624z m272-153.696v-0.336c0-23.2-16.624-42-37.088-42-20.48 0-37.088 18.8-37.088 42-0.048 123.712-88.576 223.952-197.824 224-109.248-0.048-197.76-100.288-197.824-224 0-23.2-16.592-42-37.088-42-20.496 0-37.088 18.8-37.088 42v0.336c0 155.744 102.304 284.128 234.912 304.528v101.168h-123.632c-20.512 0-37.104 18.816-37.104 42S330.768 960 351.28 960h321.44c20.48 0 37.104-18.816 37.104-42s-16.624-42-37.104-42h-123.632v-101.168C681.728 754.432 784 626.032 784 470.304z" fill="#8a8a8a" p-id="20194"></path></svg>