<?xml version="1.0" standalone="no"?><!DOCTYPE svg PUBLIC "-//W3C//DTD SVG 1.1//EN" "http://www.w3.org/Graphics/SVG/1.1/DTD/svg11.dtd"><svg t="1553249267380" class="icon" style="" viewBox="0 0 1024 1024" version="1.1" xmlns="http://www.w3.org/2000/svg" p-id="6363" xmlns:xlink="http://www.w3.org/1999/xlink" width="200" height="200"><defs><style type="text/css"></style></defs><path d="M511.35243875 130.19326531c51.06234 0 100.57533 9.99162562 147.16518188 29.69762531 45.02035594 19.04212969 85.46077781 46.31068125 120.19882499 81.04872938 34.73804719 34.73804719 62.00659969 75.17846906 81.04872938 120.198825 19.70599969 46.58889281 29.69762531 96.10284187 29.69762531 147.16518187s-9.99162562 100.57628906-29.69762531 147.16518188c-19.04212969 45.02035594-46.31068125 85.46077781-81.04872938 120.198825-34.73804719 34.73804719-75.17846906 62.00659969-120.198825 81.04872937-46.58889281 19.70599969-96.10284187 29.69762531-147.16518187 29.69762532s-100.57533-9.99162562-147.16518188-29.69762532c-45.02035594-19.04212969-85.46077781-46.31068125-120.198825-81.04872937-34.73804719-34.73804719-62.00659969-75.17846906-81.04872937-120.198825-19.70599969-46.58889281-29.69762531-96.10284187-29.69762531-147.16518188s9.99162562-100.57628906 29.69762531-147.16518187c19.04212969-45.02035594 46.31068125-85.46077781 81.04872937-120.198825 34.73804719-34.73804719 75.17846906-62.00659969 120.198825-81.04872938C410.77614969 140.18489094 460.29009969 130.19326531 511.35243875 130.19326531M511.35243875 89.90058313c-231.07756969 0-418.40208375 187.32547313-418.40208375 418.40208375S280.27487 926.70570969 511.35243875 926.70570969s418.40208375-187.32547313 418.40208375-418.40208375S742.43000844 89.90058313 511.35243875 89.90058313L511.35243875 89.90058313z" p-id="6364" fill="#ffffff"></path><path d="M640.429085 475.54471625l-28.48788562 0 0-67.55931469c0-56.57476219-45.09614437-102.58420781-100.57724907-102.58420781-55.48206281 0-100.62809438 46.00944563-100.62809437 102.58420781l0 67.55931469-28.4619825 0c-13.72637344 0-24.84811312 11.34047156-24.84811313 25.33450313l0 184.95971718c0 14.02569094 11.12173969 25.36712062 24.84811313 25.36712063l258.17919469 0c13.7273325 0 24.82508813-11.34143063 24.82508812-25.36712063L665.27815719 500.87922031C665.27815719 486.88518781 654.15258031 475.54471625 640.429085 475.54471625L640.429085 475.54471625zM525.31673094 598.18124937l0 40.38861657c0 1.80645563-1.46492719 3.32510531-3.26082938 3.32510531l-21.35895843 0c-1.81892719 0-3.2857725-1.51865063-3.2857725-3.32510531l0-40.38861657c-10.03479656-5.2322925-16.98624375-15.72182062-16.98624375-28.02164156 0-17.39204813 13.85013-31.54341375 30.91503937-31.54341375 17.08601531 0 30.93806437 14.15136563 30.93806438 31.54341375C542.30297469 582.46038781 535.35248656 592.94895688 525.31673094 598.18124937L525.31673094 598.18124937zM573.34464875 475.54471625L449.38517281 475.54471625l0-65.88045281c0-34.85029125 27.82977187-63.22881094 62.00372157-63.22881094 34.17394969 0 61.95479438 28.37851969 61.95479437 63.22881094L573.34368875 475.54471625 573.34464875 475.54471625zM573.34464875 475.54471625" p-id="6365" fill="#ffffff"></path></svg>