<?xml version="1.0" standalone="no"?><!DOCTYPE svg PUBLIC "-//W3C//DTD SVG 1.1//EN" "http://www.w3.org/Graphics/SVG/1.1/DTD/svg11.dtd"><svg t="1553249127214" class="icon" style="" viewBox="0 0 5205 1024" version="1.1" xmlns="http://www.w3.org/2000/svg" p-id="2070" xmlns:xlink="http://www.w3.org/1999/xlink" width="1016.6015625" height="200"><defs><style type="text/css"></style></defs><path d="M469.197555 511.997458z m-372.713489 0c0 205.845214 166.868275 372.713489 372.708406 372.713489 205.845214 0 372.708406-166.868275 372.708405-372.713489 0-205.840131-166.863191-372.708406-372.708405-372.708405-205.835047-0.005084-372.708406 166.868275-372.708406 372.708405M1541.548889 511.997458z m-372.708406 0c0 205.845214 166.863191 372.713489 372.703322 372.713489 205.845214 0 372.708406-166.868275 372.708405-372.713489 0-205.840131-166.863191-372.708406-372.708405-372.708405-205.840131-0.005084-372.703322 166.868275-372.703322 372.708405M2600.829958 511.997458z m-372.708405 0c0 205.845214 166.863191 372.713489 372.708405 372.713489 205.845214 0 372.708406-166.868275 372.708406-372.713489 0-205.840131-166.863191-372.708406-372.708406-372.708405-205.850298-0.005084-372.708406 166.868275-372.708405 372.708405M3673.181291 511.997458z m-372.708405 0c0 205.845214 166.868275 372.713489 372.708405 372.713489 205.845214 0 372.708406-166.868275 372.708406-372.713489 0-205.840131-166.863191-372.708406-372.708406-372.708405-205.840131-0.005084-372.708406 166.868275-372.708405 372.708405M4745.522457 900.877201c-214.421463 0-388.859408-174.448113-388.859408-388.879743 0-214.421463 174.437945-388.874659 388.859408-388.874659 214.441798 0 388.879743 174.453196 388.879743 388.874659 0 214.43163-174.443029 388.879743-388.879743 388.879743z m0-745.426978c-196.59283 0-356.531984 159.949322-356.531984 356.547235 0 196.602998 159.939154 356.552319 356.531984 356.552319 196.608081 0 356.557403-159.949322 356.557403-356.552319-0.005084-196.597914-159.954405-356.547235-356.557403-356.547235z" p-id="2071" fill="#ffffff"></path></svg>