<?xml version="1.0" standalone="no"?><!DOCTYPE svg PUBLIC "-//W3C//DTD SVG 1.1//EN" "http://www.w3.org/Graphics/SVG/1.1/DTD/svg11.dtd"><svg t="1553318334822" class="icon" style="" viewBox="0 0 1024 1024" version="1.1" xmlns="http://www.w3.org/2000/svg" p-id="12034" xmlns:xlink="http://www.w3.org/1999/xlink" width="200" height="200"><defs><style type="text/css"></style></defs><path d="M508.6 891.7c42 0 76-32.4 76-72.4h-152c0 39.9 34 72.4 76 72.4zM637 741.4L309 311.3c-1.4-1.8-2.3-3.4-4.6-5.7-3.7-3.7-7.2-5.7-12.2-6.9-12-3-24.1 4.3-27.1 16.3-5.8 23.3-9.1 48.9-9.9 76.1C249 599.2 204.7 641.2 188 657c-2.8 2.6-5.4 5.2-7.8 8-9.8 9.6-43.5 46.1-30 80.4 14.4 36.6 68.7 37.2 86.9 37.5h384c12.3 0 22.3-10 22.3-22.4 0-3.1-0.7-6.1-1.8-8.8-0.7-3.6-2.2-7.1-4.6-10.3zM876.8 853.4L821.7 780c28.3-5.2 45.9-17.3 52.6-36 11.8-33.2-19-67.5-30.7-78.9-2.3-2.9-5-5.4-7.8-8-16.7-15.8-61-57.8-67.1-266-2.4-82.4-28.4-147-77.3-192-73.1-67.3-171.3-66-183.8-65.6-9.6-0.3-69.3-1.1-128.6 30.5-4.4 1.8-9.4 4.8-13.6 7.5L311 98.9c-7-9.4-20.3-11.3-29.7-4.2-9.4 7-11.3 20.3-4.2 29.7L843 878.9c4.2 5.6 10.5 8.5 17 8.5 8 0 15.4-4.6 19-11.7 3.4-7.3 2.6-15.9-2.2-22.3z" fill="#DEDEDE" p-id="12035"></path></svg>