<?xml version="1.0" standalone="no"?><!DOCTYPE svg PUBLIC "-//W3C//DTD SVG 1.1//EN" "http://www.w3.org/Graphics/SVG/1.1/DTD/svg11.dtd"><svg t="1553269421282" class="icon" style="" viewBox="0 0 1024 1024" version="1.1" xmlns="http://www.w3.org/2000/svg" p-id="15201" xmlns:xlink="http://www.w3.org/1999/xlink" width="200" height="200"><defs><style type="text/css"></style></defs><path d="M64.2887 526.511505l0-28.009937c0.255827-1.961678 0.521886-3.924379 0.760317-5.886057 2.851954-23.620977 4.167926-47.549969 8.832156-70.811766 14.083763-70.287833 43.99705-133.49848 88.957031-189.413977 48.498574-60.322877 108.580974-105.307418 180.201152-134.699842 42.823318-17.572214 87.363743-28.181853 133.580345-31.546483 7.624654-0.554632 15.242146-1.221828 22.864754-1.837858l25.00858 0c2.300392 0.265036 4.594645 0.680499 6.903224 0.769526 40.860617 1.629103 80.751139 8.746198 119.567189 21.526269 82.522482 27.164686 151.679561 74.249051 206.785623 141.312446 58.518788 71.213925 91.907223 153.003719 100.166327 244.948805 3.841491 42.792619 1.497097 85.23936-6.865361 127.334083-9.788947 49.266054-27.447119 95.578846-53.03796 138.808416-42.437531 71.684646-100.252285 127.659495-173.500543 167.203116-75.265194 40.634466-155.896606 57.843406-241.327324 52.55496-43.023886-2.663666-84.96102-10.900258-125.158535-26.301016-124.022665-47.52848-211.67191-132.775003-262.123976-255.745708-16.795525-40.937364-26.38288-83.73817-29.724998-127.897925C65.613882 541.375028 64.921103 533.944801 64.2887 526.511505L64.2887 526.511505zM512.174474 904.395972c217.750349-0.727571 392.276245-176.013783 392.001999-392.370389-0.274246-217.231533-175.272909-391.646911-391.82599-391.890458-216.513172-0.242524-392.081817 175.197184-392.257825 391.964136C119.921765 728.489636 295.690978 904.360156 512.174474 904.395972L512.174474 904.395972zM512.174474 904.395972" p-id="15202"></path><path d="M288.707936 763.812119c-21.043269-0.597611-34.32783-21.291932-25.612331-40.754193 14.125719-31.516808 28.548196-62.909795 42.839691-94.355995 31.53932-69.38323 63.167668-138.741901 94.519724-208.214159 4.297886-9.519818 10.570753-15.97688 20.137643-20.309558 100.377128-45.421492 200.650903-91.092671 300.961516-136.666636 18.637476-8.472975 37.164435-0.190335 41.437761 18.442024 1.688455 7.360641-0.272199 14.07046-3.302209 20.730137-41.399899 90.970898-82.744539 181.961238-124.106576 272.943392-4.472871 9.832949-9.081843 19.61678-13.394055 29.516244-3.335978 7.643074-8.643867 12.973476-16.266475 16.431228-101.549837 46.103014-203.060789 92.307336-304.621882 138.381697C297.335431 761.755274 292.911678 762.551406 288.707936 763.812119L288.707936 763.812119zM679.181115 344.537987c-2.329045 0.895393-3.390213 1.243317-4.397147 1.702782-73.959455 33.603329-147.924028 67.190285-221.800595 100.965529-2.461051 1.122567-4.738931 3.870144-5.90243 6.408967-27.993564 61.244876-55.82954 122.5665-83.696214 183.876867-6.033413 13.279445-12.06171 26.574239-18.609847 40.990576 2.803859-1.1328 4.53427-1.757017 6.204305-2.51631 73.079412-33.203216 146.169057-66.393129 219.170698-99.768261 2.65548-1.211595 5.316076-3.877307 6.537903-6.531763 18.854417-41.024345 37.468356-82.171488 56.158021-123.272581C648.093073 412.853909 663.357731 379.319142 679.181115 344.537987L679.181115 344.537987zM679.181115 344.537987" p-id="15203"></path><path d="M539.897885 512.446162c-0.13303 15.518438-12.81998 27.806299-28.3947 27.497261-15.374152-0.303922-27.420513-12.591783-27.403117-27.955702 0.022513-15.387455 12.831236-28.099988 28.149107-27.934213C527.65812 484.2244 540.039101 496.927723 539.897885 512.446162L539.897885 512.446162zM539.897885 512.446162" p-id="15204"></path></svg>