<?xml version="1.0" standalone="no"?><!DOCTYPE svg PUBLIC "-//W3C//DTD SVG 1.1//EN" "http://www.w3.org/Graphics/SVG/1.1/DTD/svg11.dtd"><svg t="1553483908389" class="icon" style="" viewBox="0 0 1024 1024" version="1.1" xmlns="http://www.w3.org/2000/svg" p-id="48561" xmlns:xlink="http://www.w3.org/1999/xlink" width="200" height="200"><defs><style type="text/css"></style></defs><path d="M62.7 260.6V763c0 60.6 49.1 109.8 109.8 109.8h677.7c60.6 0 109.8-49.1 109.8-109.8V260.6c0-60.6-49.1-109.8-109.8-109.8H172.5c-60.7 0-109.8 49.2-109.8 109.8zM808.5 832H214.1c-60.6 0-109.8-49.1-109.8-109.8V284.9c0-51.5 41.8-93.3 93.3-93.3h628.3c51 0 92.4 41.4 92.4 92.4v438.2c0 60.7-49.1 109.8-109.8 109.8z" p-id="48562" fill="#1296db"></path><path d="M85.3 688.8l208.5-177L415 631.7l328-244.8 196.1 260.3v152.7L876.7 832s-15.6 11.3-22.6 14.8 60.7 8.7-34.7 10.4c-95.5 1.7-643.9 0-643.9 0l-71.2-53.8-19.1-72.9v-41.7z" p-id="48563" fill="#1296db"></path><path d="M270.1 342.6m-77.2 0a77.2 77.2 0 1 0 154.4 0 77.2 77.2 0 1 0-154.4 0Z" p-id="48564" fill="#1296db"></path></svg>